<?xml version="1.0"?>
<svg xmlns="http://www.w3.org/2000/svg" xmlns:xlink="http://www.w3.org/1999/xlink" xmlns:svgjs="http://svgjs.com/svgjs" version="1.1" width="512" height="512" x="0" y="0" viewBox="0 0 74 74" style="enable-background:new 0 0 512 512" xml:space="preserve" class=""><g><g xmlns="http://www.w3.org/2000/svg" id="Numbers"><text fill="rgb(0,0,0)" font-family="ArialMT, Arial" font-size="18" transform="translate(31.995 -762.544)" svgjs:data="{&quot;leading&quot;:&quot;1.3&quot;}">4<tspan x="-5.005" y="124" svgjs:data="{&quot;leading&quot;:&quot;1.3&quot;}">14</tspan><tspan x="-5.005" y="248" svgjs:data="{&quot;leading&quot;:&quot;1.3&quot;}">24</tspan><tspan x="-5.005" y="372" svgjs:data="{&quot;leading&quot;:&quot;1.3&quot;}">34</tspan><tspan x="-5.005" y="496" svgjs:data="{&quot;leading&quot;:&quot;1.3&quot;}">44</tspan><tspan x="-5.005" y="620" svgjs:data="{&quot;leading&quot;:&quot;1.3&quot;}">54</tspan><tspan x="-5.005" y="744" svgjs:data="{&quot;leading&quot;:&quot;1.3&quot;}">64</tspan><tspan x="-5.005" y="868" svgjs:data="{&quot;leading&quot;:&quot;1.3&quot;}">74</tspan><tspan x="-5.005" y="992" svgjs:data="{&quot;leading&quot;:&quot;1.3&quot;}">84</tspan><tspan x="-5.005" y="1116" svgjs:data="{&quot;leading&quot;:&quot;1.3&quot;}">94</tspan><tspan x="-10.011" y="1240" svgjs:data="{&quot;leading&quot;:&quot;1.3&quot;}">104</tspan><tspan letter-spacing="-.074em" x="-9.343" y="1364" svgjs:data="{&quot;leading&quot;:&quot;1.3&quot;}">1</tspan><tspan x="-.668" y="1364" svgjs:data="{&quot;leading&quot;:&quot;1.3&quot;}">14</tspan><tspan x="-10.011" y="1488" svgjs:data="{&quot;leading&quot;:&quot;1.3&quot;}">124</tspan><tspan x="-10.011" y="1612" svgjs:data="{&quot;leading&quot;:&quot;1.3&quot;}">134</tspan><tspan x="-10.011" y="1736" svgjs:data="{&quot;leading&quot;:&quot;1.3&quot;}">144</tspan><tspan x="-10.011" y="1860" svgjs:data="{&quot;leading&quot;:&quot;1.3&quot;}">154</tspan><tspan x="-10.011" y="1984" svgjs:data="{&quot;leading&quot;:&quot;1.3&quot;}">164</tspan><tspan x="-10.011" y="2108" svgjs:data="{&quot;leading&quot;:&quot;1.3&quot;}">174</tspan><tspan x="-10.011" y="2232" svgjs:data="{&quot;leading&quot;:&quot;1.3&quot;}">184</tspan><tspan x="-10.011" y="2356" svgjs:data="{&quot;leading&quot;:&quot;1.3&quot;}">194</tspan><tspan x="-10.011" y="2480" svgjs:data="{&quot;leading&quot;:&quot;1.3&quot;}">204</tspan><tspan x="-10.011" y="2604" svgjs:data="{&quot;leading&quot;:&quot;1.3&quot;}">214</tspan><tspan x="-10.011" y="2728" svgjs:data="{&quot;leading&quot;:&quot;1.3&quot;}">224</tspan><tspan x="-10.011" y="2852" svgjs:data="{&quot;leading&quot;:&quot;1.3&quot;}">234</tspan><tspan x="-10.011" y="2976" svgjs:data="{&quot;leading&quot;:&quot;1.3&quot;}">244</tspan><tspan x="-10.011" y="3100" svgjs:data="{&quot;leading&quot;:&quot;1.3&quot;}">254</tspan><tspan x="-10.011" y="3224" svgjs:data="{&quot;leading&quot;:&quot;1.3&quot;}">264</tspan><tspan x="-10.011" y="3348" svgjs:data="{&quot;leading&quot;:&quot;1.3&quot;}">274</tspan><tspan x="-10.011" y="3472" svgjs:data="{&quot;leading&quot;:&quot;1.3&quot;}">284</tspan><tspan x="-10.011" y="3596" svgjs:data="{&quot;leading&quot;:&quot;1.3&quot;}">294</tspan></text></g><g xmlns="http://www.w3.org/2000/svg" id="_2_PT" data-name="2 PT"><path d="m50.235 62h-47.235a1 1 0 0 1 -1-1v-.654a30.321 30.321 0 0 1 22.85-29.429l.492 1.938a28.321 28.321 0 0 0 -21.342 27.145h46.235z" fill="#007bff" data-original="#000000" style="" class=""/><path d="m58.835 50.122a28.457 28.457 0 0 0 -19.443-17.266l.492-1.938a30.46 30.46 0 0 1 20.816 18.482z" fill="#007bff" data-original="#000000" style="" class=""/><path d="m32.369 34.743a16.146 16.146 0 1 1 16.146-16.143 16.164 16.164 0 0 1 -16.146 16.143zm0-30.292a14.146 14.146 0 1 0 14.146 14.149 14.162 14.162 0 0 0 -14.146-14.149z" fill="#007bff" data-original="#000000" style="" class=""/><path d="m60.578 71.549a11.412 11.412 0 1 1 11.422-11.412 11.425 11.425 0 0 1 -11.422 11.412zm0-20.824a9.412 9.412 0 1 0 9.422 9.412 9.422 9.422 0 0 0 -9.422-9.411z" fill="#007bff" data-original="#000000" style="" class=""/><path d="m59.583 55.124h2v10.026h-2z" fill="#007bff" data-original="#000000" style="" class=""/><path d="m55.57 59.137h10.026v2h-10.026z" fill="#007bff" data-original="#000000" style="" class=""/></g></g></svg>
